<svg id="svg" version="1.1" xmlns="http://www.w3.org/2000/svg" xmlns:xlink="http://www.w3.org/1999/xlink" width="16" height="16" viewBox="0, 0, 16,16"><g id="svgg"><path id="path0" d="M207.166 80.148 C 202.522 81.759,196.390 84.605,193.337 86.568 L 192.073 87.380 194.600 90.059 C 198.813 94.524,201.622 99.943,204.028 108.245 L 205.200 112.289 205.200 200.072 C 205.200 297.558,205.016 290.686,207.748 295.347 C 208.828 297.190,211.395 299.600,212.279 299.600 C 212.925 299.600,216.276 294.622,218.195 290.810 L 219.700 287.821 220.055 279.010 C 220.251 274.165,220.510 234.470,220.632 190.800 L 220.855 111.400 222.250 107.029 C 224.712 99.314,228.079 93.475,232.539 89.185 L 234.478 87.319 229.294 84.693 C 225.164 82.600,213.908 78.393,212.462 78.401 C 212.318 78.402,209.935 79.188,207.166 80.148 M160.481 306.588 C 155.372 312.178,155.347 312.553,159.795 316.760 L 162.076 318.917 166.138 318.660 C 168.372 318.519,174.101 317.968,178.869 317.436 L 187.539 316.469 191.169 314.594 C 195.246 312.489,195.250 312.483,193.618 311.276 C 191.287 309.553,188.216 308.778,175.891 306.801 C 169.021 305.698,163.185 304.717,162.921 304.619 C 162.658 304.521,161.560 305.407,160.481 306.588 " stroke="none" fill="#f4f4f4" fill-rule="evenodd"></path><path id="path1" d="M210.800 67.494 C 186.518 69.979,179.182 73.531,173.727 85.448 L 172.727 87.631 174.428 90.515 C 176.790 94.522,181.041 98.628,184.867 100.597 C 188.093 102.258,190.075 104.594,192.978 110.160 L 194.000 112.119 194.000 199.676 L 194.000 287.232 193.167 288.864 C 191.991 291.170,187.827 295.373,187.024 295.065 C 186.677 294.931,183.919 294.352,180.896 293.778 C 177.873 293.204,172.710 292.119,169.423 291.367 C 162.007 289.671,162.368 289.662,158.406 291.645 C 151.827 294.938,147.664 300.289,144.999 308.877 C 142.535 316.818,149.234 326.358,159.915 330.119 C 163.153 331.259,183.337 331.028,189.947 329.775 C 212.288 325.540,224.459 314.891,229.366 295.285 C 232.292 283.593,232.533 275.832,232.704 187.600 L 232.850 112.200 234.629 109.200 C 237.003 105.196,236.963 105.238,240.400 103.221 C 247.282 99.182,253.768 89.932,252.428 86.065 C 249.703 78.203,242.150 71.660,233.882 69.996 C 228.195 68.853,213.302 67.238,210.800 67.494 M218.417 80.233 C 221.736 81.302,226.273 83.162,229.294 84.693 L 234.478 87.319 232.539 89.185 C 228.079 93.475,224.712 99.314,222.250 107.029 L 220.855 111.400 220.632 190.800 C 220.510 234.470,220.251 274.165,220.055 279.010 L 219.700 287.821 218.195 290.810 C 216.276 294.622,212.925 299.600,212.279 299.600 C 211.395 299.600,208.828 297.190,207.748 295.347 C 205.016 290.686,205.200 297.558,205.200 200.072 L 205.200 112.289 204.028 108.245 C 201.622 99.943,198.813 94.524,194.600 90.059 L 192.073 87.380 193.337 86.568 C 197.250 84.053,210.457 78.413,212.462 78.401 C 212.606 78.401,215.286 79.225,218.417 80.233 M175.891 306.801 C 188.216 308.778,191.287 309.553,193.618 311.276 C 195.250 312.483,195.246 312.489,191.169 314.594 L 187.539 316.469 178.869 317.436 C 174.101 317.968,168.372 318.519,166.138 318.660 L 162.076 318.917 159.795 316.760 C 155.876 313.054,155.793 312.850,157.270 310.620 C 159.064 307.911,162.360 304.411,162.921 304.619 C 163.185 304.717,169.021 305.698,175.891 306.801 " stroke="none" fill="#b4b4b4" fill-rule="evenodd"></path><path id="path2" d="M206.600 61.603 C 203.520 61.993,197.130 62.496,192.400 62.720 C 172.547 63.659,167.883 67.276,165.434 83.631 C 164.409 90.476,166.582 99.491,170.237 103.556 C 172.917 106.537,178.329 108.654,185.277 109.441 C 187.349 109.675,187.687 109.846,188.417 111.027 L 189.235 112.351 189.118 199.965 C 189.001 286.970,188.994 287.583,188.200 288.365 C 187.404 289.147,187.380 289.147,183.902 288.341 L 180.404 287.531 178.745 284.341 C 175.591 278.278,167.051 271.598,162.459 271.600 C 158.230 271.602,150.030 278.879,147.584 284.800 C 147.084 286.010,145.902 287.810,144.958 288.800 C 136.816 297.340,136.804 325.976,144.940 332.181 C 153.826 338.959,207.602 337.596,222.636 330.212 C 230.765 326.220,234.352 315.973,235.618 293.134 C 235.853 288.880,236.372 281.311,236.771 276.313 L 237.497 267.225 239.509 265.023 C 241.836 262.477,241.623 263.466,242.803 249.701 C 243.557 240.906,243.600 236.943,243.600 176.467 L 243.600 112.531 246.069 111.845 C 255.949 109.098,260.592 101.112,260.513 87.000 C 260.424 70.814,255.624 65.007,240.355 62.611 C 239.560 62.486,238.587 62.028,238.193 61.592 C 237.187 60.481,215.391 60.488,206.600 61.603 M228.495 68.186 C 242.682 70.022,248.877 74.221,253.035 84.819 L 254.127 87.601 252.976 90.461 C 250.245 97.245,246.426 101.488,240.079 104.791 C 237.531 106.117,236.531 107.156,234.682 110.400 L 233.656 112.200 233.482 188.200 C 233.242 292.736,232.825 297.997,223.715 311.546 C 214.143 325.783,201.680 330.868,175.000 331.422 C 160.274 331.728,159.644 331.645,154.407 328.715 C 147.778 325.006,142.469 316.140,143.646 310.743 C 145.999 299.952,151.524 292.899,160.041 289.815 L 162.470 288.936 169.335 290.460 C 188.637 294.745,187.982 294.741,191.078 290.607 L 193.072 287.945 193.335 275.072 C 193.480 267.993,193.599 228.555,193.599 187.433 L 193.600 112.666 192.248 110.206 C 189.273 104.794,187.942 103.279,184.871 101.807 C 178.521 98.764,172.024 91.499,172.004 87.418 C 171.994 85.399,175.647 79.136,178.525 76.240 C 183.640 71.093,187.443 69.625,199.800 68.031 C 203.320 67.576,206.740 67.128,207.400 67.033 C 210.178 66.636,221.156 67.236,228.495 68.186 " stroke="none" fill="#949494" fill-rule="evenodd"></path><path id="path3" d="M0.000 200.000 L 0.000 400.000 200.000 400.000 L 400.000 400.000 400.000 200.000 L 400.000 0.000 200.000 0.000 L 0.000 0.000 0.000 200.000 M238.193 61.592 C 238.587 62.028,239.560 62.486,240.355 62.611 C 255.624 65.007,260.424 70.814,260.513 87.000 C 260.592 101.112,255.949 109.098,246.069 111.845 L 243.600 112.531 243.600 176.467 C 243.600 236.943,243.557 240.906,242.803 249.701 C 241.623 263.466,241.836 262.477,239.509 265.023 L 237.497 267.225 236.771 276.313 C 236.372 281.311,235.853 288.880,235.618 293.134 C 234.352 315.973,230.765 326.220,222.636 330.212 C 207.602 337.596,153.826 338.959,144.940 332.181 C 136.804 325.976,136.816 297.340,144.958 288.800 C 145.902 287.810,147.084 286.010,147.584 284.800 C 150.030 278.879,158.230 271.602,162.459 271.600 C 167.051 271.598,175.591 278.278,178.745 284.341 L 180.404 287.531 183.902 288.341 C 187.380 289.147,187.404 289.147,188.200 288.365 C 188.994 287.583,189.001 286.970,189.118 199.965 L 189.235 112.351 188.417 111.027 C 187.687 109.846,187.349 109.675,185.277 109.441 C 178.329 108.654,172.917 106.537,170.237 103.556 C 166.582 99.491,164.409 90.476,165.434 83.631 C 167.883 67.276,172.547 63.659,192.400 62.720 C 197.130 62.496,203.520 61.993,206.600 61.603 C 215.391 60.488,237.187 60.481,238.193 61.592 " stroke="none" fill="#8c8c8c" fill-rule="evenodd"></path><path id="path4" d="M207.400 67.033 C 206.740 67.128,203.320 67.576,199.800 68.031 C 187.443 69.625,183.640 71.093,178.525 76.240 C 175.647 79.136,171.994 85.399,172.004 87.418 C 172.024 91.499,178.521 98.764,184.871 101.807 C 187.942 103.279,189.273 104.794,192.248 110.206 L 193.600 112.666 193.599 187.433 C 193.599 228.555,193.480 267.993,193.335 275.072 L 193.072 287.945 191.078 290.607 C 187.982 294.741,188.637 294.745,169.335 290.460 L 162.470 288.936 160.041 289.815 C 151.524 292.899,145.999 299.952,143.646 310.743 C 142.469 316.140,147.778 325.006,154.407 328.715 C 162.447 333.214,186.397 332.735,201.800 327.768 C 209.167 325.392,216.549 321.000,219.741 317.092 C 232.951 300.924,233.229 298.320,233.482 188.200 L 233.656 112.200 234.682 110.400 C 236.531 107.156,237.531 106.117,240.079 104.791 C 246.426 101.488,250.245 97.245,252.976 90.461 L 254.127 87.601 253.035 84.819 C 250.279 77.794,245.047 72.447,238.553 70.017 C 234.216 68.394,212.458 66.310,207.400 67.033 M222.800 68.429 C 241.000 70.463,248.585 74.978,252.428 86.065 C 253.768 89.932,247.282 99.182,240.400 103.221 C 236.963 105.238,237.003 105.196,234.629 109.200 L 232.850 112.200 232.704 187.600 C 232.533 275.832,232.292 283.593,229.366 295.285 C 224.459 314.891,212.288 325.540,189.947 329.775 C 183.337 331.028,163.153 331.259,159.915 330.119 C 149.234 326.358,142.535 316.818,144.999 308.877 C 147.664 300.289,151.827 294.938,158.406 291.645 C 162.368 289.662,162.007 289.671,169.423 291.367 C 172.710 292.119,177.873 293.204,180.896 293.778 C 183.919 294.352,186.677 294.931,187.024 295.065 C 187.827 295.373,191.991 291.170,193.167 288.864 L 194.000 287.232 194.000 199.676 L 194.000 112.119 192.978 110.160 C 190.075 104.594,188.093 102.258,184.867 100.597 C 181.041 98.628,176.790 94.522,174.428 90.515 L 172.727 87.631 173.727 85.448 C 178.695 74.595,185.458 70.691,203.215 68.426 C 213.272 67.143,211.296 67.143,222.800 68.429 " stroke="none" fill="#a89c8c" fill-rule="evenodd"></path></g></svg>
